<svg xmlns="http://www.w3.org/2000/svg" width="512" height="512"><path d="M7.818 403.965S-33.161 85.496 188.761 58.663C349.472 39.23 470.396 201.062 460.902 210.555c-9.493 9.494-459.413 212.396-453.084 193.41z" fill="#ef9b65"/><path d="M58.961 440.899S13.9 446.468 5.988 425.9s18.987-49.049 22.151-37.973-18.986 45.883-25.315 4.746 9.493-94.933 31.644-79.111 11.076 52.213-4.747 33.227c-15.822-18.987-33.227-74.364 4.747-74.364s68.035 22.151 34.809 17.404c-33.227-4.747-42.72-68.035-12.658-69.617s49.049 12.658 28.48 14.24-53.795-44.302-12.658-60.124 56.96 12.658 39.555 11.076-15.822-64.871 17.404-53.795c33.227 11.076 20.569 25.315 14.24 20.569-6.329-4.747-11.076-53.795 22.151-47.466s42.72 30.062 25.315 23.733c-17.404-6.329-4.747-64.871 30.062-45.884s30.062 42.72 20.569 31.644c-9.493-11.076 4.189-74.749 56.403-39.941s-12.101 54.181.557 41.523c12.658-12.658 47.466-58.542 66.453-22.151 18.987 36.391-31.644 56.96-25.315 42.72 6.329-14.24 56.96-45.884 69.617-17.404 12.658 28.48-6.329 56.96-11.076 37.973s20.569-39.555 36.391-12.658c15.822 26.898-20.569 37.973-17.404 26.898 3.164-11.076 47.466-58.542 55.378-7.911s-34.809 66.453-31.644 49.049 47.466-42.72 60.124-12.658-12.658 50.631-23.733 37.973" fill="#a6b470"/><path d="M45.69 443.03c-14.313 0-35.586-2.489-41.022-16.622-2.385-6.205-1.786-13.211.491-19.767-1.596-3.381-2.844-7.972-3.733-13.752-4.285-27.858 1.461-60.48 12.134-75.328-3.683-12.464-4.815-25.505-.583-34.542 3.73-7.968 10.961-12.009 21.488-12.009 3.114 0 6.201.149 9.213.424-4.605-8.534-6.971-18.678-6.549-28.117.657-14.746 7.916-23.911 19.412-24.517a85.704 85.704 0 011.808-.076c-2.888-4.26-5.088-8.983-6.168-13.765-1.888-8.37-1.836-23.65 19.749-31.952 11.345-4.362 20.699-5.374 28.026-4.674-1.4-11.655 1.237-25.932 8.763-33.719 5.447-5.636 12.755-7.138 21.127-4.347 2.982.994 5.583 2.006 7.849 3.019.025-6.045.986-12.432 3.291-17.652 3.175-7.189 10.105-15.155 25.069-12.312 6.22 1.184 11.56 2.927 16.06 4.95.964-10.238 5.734-21.545 14.07-27.223 5.102-3.48 13.697-6.255 25.657.269 7.049 3.843 12.546 7.929 16.74 11.924 1.516-7.264 4.743-14.895 9.986-20.813 6.85-7.726 22.499-17.914 50.354.657 11.414 7.609 17.14 14.427 19.669 20.167 9.558-8.639 20.55-15.946 30.641-14.633 6.897.91 12.673 5.741 17.17 14.36 3.437 6.586 4.597 12.544 4.401 17.78 6.786-2.876 13.741-4.724 19.917-4.724 9.511-.001 16.433 4.266 20.022 12.339a51.346 51.346 0 013.614 11.713c8.001-1.122 15.864 3.667 21.626 13.46.525.89.991 1.76 1.405 2.61 6.231-4.475 13.026-7.583 19.086-7.202 9.313.574 15.254 8.675 17.662 24.077 1.264 8.088 1.242 15.367.306 21.811.834-.15 1.665-.272 2.49-.362 11.999-1.307 21.069 3.875 25.588 14.612 7.841 18.622 1.657 34.797-8.504 41.152-6.325 3.956-13.233 3.287-17.595-1.701a1.411 1.411 0 01.133-1.995 1.41 1.41 0 011.993.134c3.454 3.944 8.807 4.39 13.97 1.164 9.147-5.719 14.625-20.49 7.397-37.658-5.119-12.158-15.166-13.718-22.673-12.899a35.844 35.844 0 00-3.305.523c-2.88 14.666-10.577 24.601-18.137 29.414-5.365 3.418-10.621 4.244-13.719 2.159-1.237-.831-3.189-2.889-2.38-7.34 1.922-10.561 17.01-22.74 31.787-26.553 1.049-6.429 1.143-13.78-.146-22.025-2.173-13.912-7.234-21.209-15.042-21.691-5.486-.331-11.842 2.736-17.742 7.091 4.335 11.527-1.173 18.937-4.056 21.818-5.088 5.087-12.921 7.572-16.731 5.324-1.778-1.045-2.424-2.954-1.77-5.237 1.345-4.71 9.343-15.22 19.081-22.883a33.9 33.9 0 00-1.535-2.911c-5.191-8.817-11.836-13.067-18.769-12.1 1.543 12.486-1.869 23.294-5.98 28.305-2.079 2.536-4.404 3.675-6.554 3.189-1.676-.375-3.943-1.913-5.243-7.109-2.584-10.337 3.258-21.996 13.023-25.991.514-.211 1.03-.398 1.546-.558a47.906 47.906 0 00-3.413-11.193c-3.145-7.074-9.012-10.661-17.438-10.66-6.378 0-13.443 2.027-20.21 5.07-1.599 10.919-8.929 18.21-12.06 20.871-7.234 6.151-15.842 9.112-19.202 6.61-.9-.674-2.189-2.301-.707-5.635 3.117-7.017 15.63-17.292 29.401-23.744.433-5.131-.563-11.07-4.048-17.747-4.045-7.755-9.103-12.083-15.033-12.865-9.365-1.237-19.962 6.15-29.235 14.702.922 3.297.798 6.167.204 8.542-2.457 9.837-14.042 15.799-19.84 16.374-2.717.268-3.777-.675-4.175-1.516-.919-1.942 1.187-4.049 1.88-4.741 1.543-1.543 3.418-3.586 5.555-5.913 3.691-4.017 8.208-8.933 13.186-13.631-2.399-6.27-8.805-12.952-19.084-19.804-24.774-16.517-39.051-9.731-46.668-1.135-5.204 5.871-8.355 13.998-9.649 21.423 6.913 7.449 9.351 14.325 8.956 18.386-.21 2.158-1.223 3.678-2.777 4.169-1.138.358-3.487.418-6.554-3.16-2.75-3.21-3.791-10.402-2.667-18.495-4.152-4.227-9.879-8.668-17.504-12.827-8.598-4.689-16.234-4.826-22.714-.416-7.918 5.396-12.317 16.44-12.943 26.194 9.655 4.961 14.801 11.149 15.953 15.124.806 2.787-.254 4.308-.961 4.968-1.209 1.131-3.794 2.068-9.202.099-4.561-1.658-7.557-6.434-8.435-13.448a35.043 35.043 0 01-.248-4.948c-4.58-2.185-10.072-4.068-16.414-5.276-10.549-2.017-17.938 1.583-21.952 10.677-2.377 5.382-3.147 11.94-3.001 17.887 9.782 5.015 11.897 9.902 12.165 12.736.251 2.642-.983 5.064-3.219 6.318-2.181 1.224-4.757 1.067-6.728-.41-2.604-1.951-4.619-8.849-5.019-16.871-2.427-1.153-5.334-2.326-8.818-3.488-7.369-2.453-13.495-1.236-18.2 3.631-6.919 7.162-9.384 21.073-7.891 32.141 7.408 1.26 12.386 4.325 14.892 7.079 2.468 2.714 3.269 5.69 2.14 7.961-.674 1.351-2.612 3.555-8.026 3.051-4.188-.381-7.692-3.817-9.87-9.674-.676-1.822-1.215-3.829-1.61-5.961-6.993-.791-16.127.119-27.441 4.471-14.528 5.587-20.922 15.776-18.007 28.69 1.124 4.986 3.62 9.964 6.866 14.343 18.449.131 32.943 6.059 33.308 11.664.138 2.159-1.466 4.869-9.909 5.518-8.103.621-17.888-5.551-24.821-14.355a88.926 88.926 0 00-3.694.119c-9.892.52-16.151 8.678-16.737 21.82-.431 9.6 2.159 19.968 7.12 28.353 19.13 2.356 34.843 9.509 37.482 14.625.839 1.63.304 2.804-.091 3.359-.585.817-2.352 3.308-15.389 1.448-9.964-1.423-18.079-8.003-23.645-16.797-3.512-.38-7.181-.594-10.966-.594-9.335 0-15.704 3.493-18.929 10.38-3.647 7.79-2.855 19.281.224 30.616 1.317-1.443 2.697-2.623 4.133-3.506 4.879-3.004 10.204-2.621 15.395 1.085 11.093 7.925 14.332 20.867 12.617 30.177-1.055 5.732-3.929 9.743-7.695 10.73-2.576.671-6.681.25-11.577-5.625-5.171-6.205-10.442-16.096-14.003-26.729C5.253 335.808.25 366.677 4.215 392.456c.687 4.467 1.538 7.852 2.449 10.416a48.044 48.044 0 017.189-11.288c4.594-5.345 9.208-8.125 12.352-7.442 1.126.247 2.612 1.037 3.286 3.395 1.634 5.715-2.659 16.927-8.664 22.635-3.205 3.044-6.48 4.118-9.453 3.102-1.596-.544-3.029-1.672-4.302-3.374-1.447 5.253-1.629 10.664.229 15.49 7.43 19.318 51.039 14.158 51.48 14.104a1.4 1.4 0 011.576 1.229 1.412 1.412 0 01-1.229 1.576c-.63.081-6.127.731-13.438.731zM8.222 406.432c1.51 2.777 3.015 3.807 4.072 4.168 2.408.827 4.92-.888 6.59-2.475 5.182-4.924 9.238-15.106 7.896-19.811-.353-1.229-.95-1.36-1.173-1.409-1.629-.352-5.315 1.532-9.605 6.524-3.131 3.644-5.936 8.182-7.78 13.003zm8.476-88.384c3.393 10.954 8.758 21.412 14.108 27.834 3.078 3.693 6.168 5.363 8.691 4.701 2.634-.69 4.793-3.95 5.63-8.506 1.552-8.43-1.397-20.162-11.483-27.365-4.252-3.036-8.379-3.367-12.267-.977-1.639 1.008-3.202 2.469-4.679 4.313zm32.383-43.157c5.061 7.138 12.021 12.343 20.395 13.538 11.414 1.628 12.695-.284 12.7-.305.011-.052-.033-.369-.486-.941-2.896-3.668-15.583-9.836-32.609-12.292zm15.03-53.347c6.204 7.122 14.244 12.02 20.881 11.498 5.45-.42 7.352-1.734 7.303-2.517-.182-2.802-11.049-8.425-28.184-8.981zm406.793-32.979c-14.039 4.039-26.891 15.596-28.415 23.988-.273 1.503-.293 3.502 1.173 4.488 1.739 1.171 5.701.94 10.624-2.196 6.817-4.34 13.738-13.193 16.618-26.28zm-367.541-16.93c.34 1.604.768 3.12 1.287 4.515 1.03 2.769 3.368 7.471 7.474 7.844 2.717.254 4.652-.315 5.24-1.494.583-1.169-.069-3.008-1.701-4.8-2.106-2.317-6.203-4.856-12.3-6.065zm332.853-20.949c-8.904 7.207-16.328 16.791-17.493 20.864-.425 1.49.213 1.865.486 2.025 2.109 1.24 8.487-.075 13.299-4.887 2.951-2.949 6.808-8.87 3.708-18.002zm-24.23-17.13c-.295.102-.591.214-.889.334-8.515 3.484-13.606 13.662-11.347 22.691.729 2.92 1.866 4.756 3.117 5.036 1.035.232 2.402-.578 3.752-2.223 3.611-4.408 6.678-14.361 5.367-25.838zm-271.234 4.413c.544 6.59 2.156 11.891 3.736 13.076 1.264.948 2.717.729 3.65.206 1.267-.711 1.935-2.05 1.789-3.586-.13-1.369-1.254-5.259-9.175-9.696zm226.694-22.577c-12.736 6.376-23.821 15.917-26.317 21.537-.237.533-.729 1.814-.182 2.223 1.507 1.118 8.603-.485 15.677-6.499 3.371-2.867 8.992-8.751 10.822-17.261zm-182.679-2.571a31.21 31.21 0 00.229 3.149c.428 3.422 1.855 9.42 6.596 11.144 3.617 1.316 5.635 1.121 6.306.491.538-.504.34-1.542.174-2.116-.983-3.399-5.555-8.413-13.305-12.668zm113.758 5.426c2.225.479 12.007-2.569 16.728-10.039 1.977-3.124 2.65-6.434 2.049-9.887-4.486 4.325-8.584 8.785-11.966 12.464-2.167 2.362-4.072 4.433-5.638 5.999-.72.72-1.035 1.196-1.173 1.463zm-57.982-18.831c-.588 6.191.213 11.468 2.269 13.868 1.817 2.12 3.089 2.461 3.556 2.303.409-.13.721-.799.814-1.746.299-3.097-1.567-8.417-6.639-14.425z" fill="#241726"/><path d="M53.812 419.468s-25.048-17.341-10.597-63.583 37.655-42.553 29.865-84.778 12.524-90.558 54.913-104.046 33.718-56.84 78.998-61.657c45.279-4.817 54.507 29.45 100.563 15.216 46.056-14.234 68.993-10.4 81.517 20.429 12.524 30.828 64.547 19.268 77.071 53.95 12.524 34.682 14.451 46.242-.963 66.474-15.415 20.231-411.367 157.995-411.367 157.995z" fill="#ac2e2d"/><path d="M46.303 453.556s31.644-310.114 193.03-322.772c161.386-12.658 281.634 142.399 272.141 151.893S39.974 472.543 46.303 453.556z" fill="#f3bb89"/><path d="M50.522 371.028c-29.205 0-31.378-16.564-31.455-17.27l11.24-1.248-.039-.26c.566 2.583 5.527 7.468 20.254 7.468.387 0 .665-.026.856-.057.652-3.574-4.426-15.443-7.507-22.647-6.543-15.298-13.31-31.117-8.711-41.791 1.728-4.01 4.953-6.982 9.329-8.593 10.759-3.963 20.006-2.935 27.444-2.105 11.775 1.32 16.646 1.858 22.145-16.012 4.348-14.133-1.797-27.061-7.217-38.467-6.477-13.633-14.542-30.602 7.46-41.125 17.231-8.241 25.851-5.011 32.148-2.652 5.196 1.949 8.067 3.027 18.211-5.993 8.523-7.577 7.361-15.678 5.889-25.935-1.977-13.772-4.437-30.91 22.769-43.003 23.305-10.352 34.498 2.214 42.678 11.39 7.7 8.64 12.573 13.379 23.25 10.126 10.828-3.295 16.298-10.948 22.09-19.05 8.898-12.448 18.984-26.548 48.082-16.226 26.858 9.529 34.081 24.862 39.352 36.058 3.763 7.989 5.359 10.625 9.876 11.27 5.312.761 10.171-2.906 15.773-7.156 9.241-7.014 21.894-16.624 39.934-2.588 12.206 9.492 11.342 24.757 10.646 37.021-.414 7.316-.842 14.883 2.021 17.121 1.734 1.357 7.032 2.896 22.987-2.043a5.655 5.655 0 017.074 3.73 5.653 5.653 0 01-3.727 7.074c-16.599 5.137-26.867 5.181-33.3.149-7.524-5.882-6.924-16.45-6.345-26.669.602-10.621 1.223-21.606-6.298-27.456-11.179-8.694-17.137-4.175-26.157 2.671-6.657 5.051-14.216 10.763-24.211 9.343-10.928-1.561-14.779-9.739-18.504-17.646-4.917-10.436-10.486-22.266-32.905-30.22-21.074-7.477-26.651.329-35.1 12.145-6.325 8.849-13.495 18.879-27.999 23.294-18.114 5.514-27.466-4.985-34.984-13.421-8.062-9.046-13.887-15.584-29.641-8.581-19.393 8.618-18.04 18.033-16.171 31.062 1.56 10.861 3.501 24.378-9.567 35.993-14.15 12.572-21.229 11.302-29.694 8.131-5.351-2.004-10.403-3.903-23.299 2.264-10.737 5.134-9.989 9.524-2.126 26.07 5.994 12.612 13.451 28.306 7.808 46.646-7.656 24.894-18.998 25.624-34.205 23.926-6.902-.772-14.031-1.565-22.281 1.476-1.88.693-2.496 1.632-2.852 2.457-2.678 6.215 3.909 21.621 8.722 32.869 6.3 14.734 11.278 26.37 6.499 33.612-1.454 2.211-4.416 4.848-10.242 4.848z" fill="#f9dd96"/><g fill="#241726"><path d="M113.725 111.637a1.415 1.415 0 01-1.188-2.183c1.632-2.515 8.316-6.328 9.638-7.067a1.418 1.418 0 011.924.545 1.415 1.415 0 01-.544 1.923c-2.83 1.579-7.678 4.641-8.644 6.136a1.41 1.41 0 01-1.186.646zM118.079 97.438a1.415 1.415 0 01-1.188-2.183c1.632-2.515 8.316-6.328 9.638-7.067a1.415 1.415 0 011.38 2.468c-2.83 1.579-7.678 4.641-8.644 6.136a1.41 1.41 0 01-1.186.646zM139.225 94.739a1.415 1.415 0 01-1.188-2.183c1.632-2.515 8.316-6.328 9.638-7.067a1.415 1.415 0 011.38 2.468c-2.83 1.579-7.678 4.641-8.644 6.136a1.41 1.41 0 01-1.186.646zM141.873 81.379a1.415 1.415 0 01-1.188-2.183c1.632-2.515 8.316-6.328 9.638-7.067a1.414 1.414 0 011.38 2.468c-2.83 1.579-7.678 4.641-8.644 6.136a1.41 1.41 0 01-1.186.646zM131.779 110.544a1.415 1.415 0 01-1.188-2.183c1.632-2.515 8.316-6.328 9.638-7.067a1.42 1.42 0 011.924.545 1.415 1.415 0 01-.544 1.923c-2.83 1.579-7.678 4.641-8.644 6.136a1.41 1.41 0 01-1.186.646zM103.143 131.438a1.415 1.415 0 01-1.188-2.183c1.632-2.515 8.316-6.328 9.638-7.067a1.418 1.418 0 011.924.545 1.415 1.415 0 01-.544 1.923c-2.83 1.579-7.678 4.641-8.644 6.136a1.41 1.41 0 01-1.186.646zM94.435 115.218a1.415 1.415 0 01-1.188-2.183c1.629-2.515 8.313-6.329 9.636-7.068a1.418 1.418 0 011.924.545 1.412 1.412 0 01-.544 1.923c-2.827 1.579-7.675 4.643-8.642 6.138-.27.417-.725.645-1.186.645zM83.225 133.157a1.415 1.415 0 01-1.188-2.183c1.632-2.515 8.316-6.329 9.638-7.068a1.415 1.415 0 011.38 2.468c-2.83 1.579-7.678 4.643-8.644 6.138a1.412 1.412 0 01-1.186.645z"/></g><g fill="#241726"><path d="M420.34 295.101a1.414 1.414 0 01-.19-2.813c3.211-.442 8.84-1.53 10.284-2.569a1.414 1.414 0 111.651 2.295c-2.432 1.75-10.047 2.869-11.549 3.074-.066.009-.13.013-.196.013zM411.119 306.741a1.413 1.413 0 01-.19-2.813c3.208-.442 8.838-1.531 10.284-2.57a1.413 1.413 0 011.974.323 1.416 1.416 0 01-.323 1.974c-2.435 1.749-10.047 2.867-11.549 3.073-.067.009-.13.013-.196.013zM390.439 301.556a1.414 1.414 0 01-.19-2.814c3.208-.442 8.838-1.53 10.284-2.569a1.416 1.416 0 011.974.323 1.416 1.416 0 01-.323 1.974c-2.435 1.749-10.047 2.866-11.549 3.072-.066.01-.129.014-.196.014zM383.112 313.036a1.413 1.413 0 01-.19-2.813c3.208-.442 8.838-1.53 10.282-2.569a1.413 1.413 0 111.651 2.295c-2.432 1.75-10.044 2.869-11.546 3.074a1.46 1.46 0 01-.197.013zM403.129 289.546a1.413 1.413 0 01-.19-2.813c3.208-.442 8.838-1.531 10.284-2.57a1.413 1.413 0 011.974.323 1.416 1.416 0 01-.323 1.974c-2.435 1.749-10.047 2.867-11.549 3.073-.067.009-.13.013-.196.013zM437.405 280.509a1.414 1.414 0 01-.19-2.814c3.208-.442 8.838-1.53 10.284-2.569a1.415 1.415 0 011.651 2.297c-2.435 1.749-10.047 2.866-11.549 3.072-.066.01-.129.014-.196.014zM439.614 298.788a1.414 1.414 0 01-.19-2.814c3.208-.442 8.838-1.53 10.284-2.569a1.417 1.417 0 011.974.323 1.416 1.416 0 01-.323 1.974c-2.435 1.749-10.047 2.866-11.549 3.072-.066.01-.13.014-.196.014zM456.583 286.161a1.413 1.413 0 01-.19-2.813c3.208-.442 8.838-1.531 10.284-2.57a1.413 1.413 0 111.651 2.297c-2.435 1.749-10.047 2.867-11.549 3.073-.066.009-.13.013-.196.013z"/></g><g fill="#241726"><path d="M140.238 404.966a1.413 1.413 0 01-.19-2.813c3.208-.442 8.838-1.531 10.284-2.57a1.41 1.41 0 011.974.323 1.416 1.416 0 01-.323 1.974c-2.435 1.749-10.047 2.867-11.549 3.073a1.423 1.423 0 01-.196.013zM131.014 416.605a1.414 1.414 0 01-.19-2.814c3.211-.442 8.84-1.53 10.284-2.568a1.413 1.413 0 111.651 2.295c-2.432 1.75-10.047 2.867-11.549 3.073-.066.01-.13.014-.196.014zM110.338 411.421a1.413 1.413 0 01-.19-2.813c3.208-.442 8.838-1.531 10.284-2.57a1.413 1.413 0 111.651 2.297c-2.435 1.749-10.047 2.867-11.549 3.073-.067.009-.13.013-.196.013zM103.007 422.901a1.413 1.413 0 01-.19-2.813c3.208-.442 8.838-1.531 10.284-2.57a1.413 1.413 0 011.974.323 1.416 1.416 0 01-.323 1.974c-2.435 1.749-10.047 2.867-11.549 3.073a1.423 1.423 0 01-.196.013zM123.024 399.411a1.414 1.414 0 01-.19-2.813c3.211-.442 8.84-1.53 10.284-2.569a1.414 1.414 0 111.651 2.295c-2.432 1.75-10.047 2.869-11.549 3.074-.066.009-.13.013-.196.013zM157.304 390.375a1.413 1.413 0 01-.19-2.813c3.208-.442 8.838-1.531 10.284-2.57a1.415 1.415 0 011.651 2.297c-2.435 1.749-10.047 2.867-11.549 3.073-.067.009-.13.013-.196.013zM159.51 408.654a1.414 1.414 0 01-.19-2.814c3.208-.442 8.838-1.53 10.284-2.569a1.415 1.415 0 011.974.322 1.413 1.413 0 01-.323 1.973c-2.435 1.752-10.047 2.869-11.549 3.074-.067.01-.13.014-.196.014zM176.478 396.025a1.414 1.414 0 01-.19-2.814c3.208-.442 8.838-1.53 10.284-2.569a1.413 1.413 0 111.651 2.297c-2.435 1.749-10.047 2.866-11.549 3.072-.066.01-.129.014-.196.014z"/></g></svg>
